<svg xmlns="http://www.w3.org/2000/svg" viewBox="0 0 240 200" fill="none">
  <rect width="240" height="200" fill="#FAFAF7"></rect>
  <rect x="0" y="170" width="240" height="30" fill="#EDE9E1"></rect>
  <g>
    <rect x="20" y="120" width="60" height="50" fill="#E8743C"></rect>
    <line x1="20" y1="135" x2="80" y2="135" stroke="#0A0E0D" stroke-width="1.5"></line>
    <line x1="20" y1="150" x2="80" y2="150" stroke="#0A0E0D" stroke-width="1.5"></line>
    <line x1="35" y1="120" x2="35" y2="135" stroke="#0A0E0D" stroke-width="1.5"></line>
    <line x1="55" y1="135" x2="55" y2="150" stroke="#0A0E0D" stroke-width="1.5"></line>
    <line x1="50" y1="150" x2="50" y2="170" stroke="#0A0E0D" stroke-width="1.5"></line>
    <line x1="65" y1="120" x2="65" y2="135" stroke="#0A0E0D" stroke-width="1.5"></line>
  </g>
  <g>
    <path d="M 100 110 L 160 110 L 165 170 L 95 170 Z" fill="#0A0E0D"></path>
    <rect x="118" y="125" width="24" height="14" fill="#FFB800"></rect>
    <text x="130" y="135" font-family="Space Grotesk" font-size="9" font-weight="700" text-anchor="middle" fill="#0A0E0D">CEM</text>
  </g>
  <g stroke="#A8A29E" stroke-width="3">
    <line x1="180" y1="170" x2="195" y2="80"></line>
    <line x1="190" y1="170" x2="205" y2="80"></line>
    <line x1="200" y1="170" x2="215" y2="80"></line>
    <line x1="210" y1="170" x2="225" y2="80"></line>
  </g>
  <ellipse cx="195" cy="170" rx="20" ry="3" fill="#0A0E0D"></ellipse>
</svg>
