<svg xmlns="http://www.w3.org/2000/svg" viewBox="0 0 240 200" fill="none">
  <rect width="240" height="200" fill="#FAFAF7"></rect>
  <path d="M 90 60 Q 120 35 150 60 L 150 70 L 90 70 Z" fill="#FFB800"></path>
  <rect x="85" y="68" width="70" height="6" fill="#FFB800"></rect>
  <circle cx="120" cy="85" r="14" fill="#0A0E0D"></circle>
  <path d="M 95 100 L 145 100 L 150 170 L 90 170 Z" fill="#0A0E0D"></path>
  <rect x="95" y="120" width="55" height="4" fill="#FFB800"></rect>
  <rect x="95" y="140" width="55" height="4" fill="#FFB800"></rect>
  <rect x="145" y="105" width="10" height="40" fill="#0A0E0D" transform="rotate(15 150 125)"></rect>
  <rect x="155" y="120" width="30" height="40" fill="#FAFAF7" stroke="#0A0E0D" stroke-width="2"></rect>
  <line x1="160" y1="130" x2="180" y2="130" stroke="#0A0E0D" stroke-width="1.5"></line>
  <line x1="160" y1="138" x2="180" y2="138" stroke="#0A0E0D" stroke-width="1.5"></line>
  <line x1="160" y1="146" x2="175" y2="146" stroke="#0A0E0D" stroke-width="1.5"></line>
  <rect x="0" y="170" width="240" height="30" fill="#EDE9E1"></rect>
</svg>
